<svg xmlns="http://www.w3.org/2000/svg" width="860" height="498" viewBox="0 0 860 498" font-family="'Inter','Segoe UI',-apple-system,sans-serif"><defs><linearGradient id="bg" x1="0" y1="0" x2="1" y2="1"><stop offset="0" stop-color="#1a1b27"/><stop offset="1" stop-color="#1f2335"/></linearGradient><linearGradient id="bar" x1="0" y1="0" x2="1" y2="0"><stop offset="0" stop-color="#70a5fd"/><stop offset="1" stop-color="#bb9af7"/></linearGradient><linearGradient id="spark" x1="0" y1="0" x2="0" y2="1"><stop offset="0" stop-color="#70a5fd" stop-opacity="0.35"/><stop offset="1" stop-color="#70a5fd" stop-opacity="0.02"/></linearGradient><symbol id="pylogo" viewBox="0 0 256 255"><path fill="#3776AB" d="M126.916.072c-64.832 0-60.784 28.115-60.784 28.115l.072 29.128h61.868v8.745H41.631S.145 61.355.145 126.77c0 65.417 36.21 63.097 36.21 63.097h21.61v-30.356s-1.165-36.21 35.632-36.21h61.362s34.475.557 34.475-33.319V33.97S194.67.072 126.916.072zM92.802 19.66a11.12 11.12 0 0 1 11.13 11.13 11.12 11.12 0 0 1-11.13 11.13 11.12 11.12 0 0 1-11.13-11.13 11.12 11.12 0 0 1 11.13-11.13z"/><path fill="#FFD43B" d="M128.757 254.126c64.832 0 60.784-28.115 60.784-28.115l-.072-29.127H127.6v-8.745h86.542s41.486 4.705 41.486-60.712c0-65.416-36.21-63.096-36.21-63.096h-21.61v30.355s1.165 36.21-35.632 36.21h-61.362s-34.475-.557-34.475 33.32v56.013s-5.235 33.897 62.518 33.897zm34.114-19.586a11.12 11.12 0 0 1-11.13-11.13 11.12 11.12 0 0 1 11.13-11.131 11.12 11.12 0 0 1 11.13 11.13 11.12 11.12 0 0 1-11.13 11.13z"/></symbol></defs><style>@media (prefers-reduced-motion: no-preference){.bar{transform-box:fill-box;transform-origin:left;animation:grow .55s cubic-bezier(.2,.7,.3,1) backwards}.cell{animation:fade .45s ease-out backwards}.pulse{animation:pulse 3s ease-in-out infinite}.line{stroke-dasharray:620;stroke-dashoffset:620;animation:draw 1s ease-out .25s forwards}.fill,.dot{animation:fade .7s ease-out .7s backwards}}@keyframes grow{from{transform:scaleX(0)}}@keyframes fade{from{opacity:0}}@keyframes draw{to{stroke-dashoffset:0}}@keyframes pulse{50%{opacity:.4}}</style><rect width="860" height="498" rx="16" fill="url(#bg)"/><rect x="1" y="1" width="858" height="496" rx="15" fill="none" stroke="#565f89" stroke-opacity="0.30"/><text x="32" y="50" fill="#c0caf5" font-size="27" font-weight="700">Luke Johnson</text><text x="828" y="44" fill="#7dcfff" font-size="13" text-anchor="end" letter-spacing="2">ML · DATA SCIENCE</text><text x="828" y="74" fill="#565f89" font-size="12" text-anchor="end">as of 2026-07-05</text><svg x="32" y="101" width="16" height="16" viewBox="0 0 16 16"><path fill="#9ece6a" d="M5.45 5.154A4.25 4.25 0 0 0 9.25 7.5h1.378a2.251 2.251 0 1 1 0 1.5H9.25A5.734 5.734 0 0 1 5 7.123v3.505a2.25 2.25 0 1 1-1.5 0V5.372a2.25 2.25 0 1 1 1.95-.218ZM4.25 13.5a.75.75 0 1 0 0-1.5.75.75 0 0 0 0 1.5Zm8.5-4.5a.75.75 0 1 0 0-1.5.75.75 0 0 0 0 1.5ZM5 3.25a.75.75 0 1 0 0 .005V3.25Z"/></svg><text x="54" y="120" fill="#9ece6a" font-size="30" font-weight="700">16</text><text x="56" y="138" fill="#565f89" font-size="12">PRs merged</text><svg x="162" y="101" width="16" height="16" viewBox="0 0 16 16"><path fill="#bb9af7" d="M1.5 3.25a2.25 2.25 0 1 1 3 2.122v5.256a2.251 2.251 0 1 1-1.5 0V5.372A2.25 2.25 0 0 1 1.5 3.25Zm5.677-.177L9.573.677A.25.25 0 0 1 10 .854V2.5h1A2.5 2.5 0 0 1 13.5 5v5.628a2.251 2.251 0 1 1-1.5 0V5a1 1 0 0 0-1-1h-1v1.646a.25.25 0 0 1-.427.177L7.177 3.427a.25.25 0 0 1 0-.354ZM3.75 2.5a.75.75 0 1 0 0 1.5.75.75 0 0 0 0-1.5Zm0 9.5a.75.75 0 1 0 0 1.5.75.75 0 0 0 0-1.5Zm8.25.75a.75.75 0 1 0 1.5 0 .75.75 0 0 0-1.5 0Z"/></svg><text x="184" y="120" fill="#bb9af7" font-size="30" font-weight="700">14</text><text x="186" y="138" fill="#565f89" font-size="12">upstream</text><svg x="292" y="101" width="16" height="16" viewBox="0 0 16 16"><path fill="#70a5fd" d="M2 2.5A2.5 2.5 0 0 1 4.5 0h8.75a.75.75 0 0 1 .75.75v12.5a.75.75 0 0 1-.75.75h-2.5a.75.75 0 0 1 0-1.5h1.75v-2h-8a1 1 0 0 0-.714 1.7.75.75 0 1 1-1.072 1.05A2.495 2.495 0 0 1 2 11.5Zm10.5-1h-8a1 1 0 0 0-1 1v6.708A2.486 2.486 0 0 1 4.5 9h8ZM5 12.25a.25.25 0 0 1 .25-.25h3.5a.25.25 0 0 1 .25.25v3.25a.25.25 0 0 1-.4.2l-1.45-1.087a.249.249 0 0 0-.3 0L5.4 15.7a.25.25 0 0 1-.4-.2Z"/></svg><text x="314" y="120" fill="#70a5fd" font-size="30" font-weight="700">4</text><text x="316" y="138" fill="#565f89" font-size="12">OSS projects</text><svg x="422" y="101" width="16" height="16" viewBox="0 0 16 16"><path fill="#7dcfff" d="M1.75 1h12.5c.966 0 1.75.784 1.75 1.75v8.5A1.75 1.75 0 0 1 14.25 13H8.061l-2.574 2.573A1.458 1.458 0 0 1 3 14.543V13H1.75A1.75 1.75 0 0 1 0 11.25v-8.5C0 1.784.784 1 1.75 1ZM1.5 2.75v8.5c0 .138.112.25.25.25h2a.75.75 0 0 1 .75.75v2.19l2.72-2.72a.749.749 0 0 1 .53-.22h6.5a.25.25 0 0 0 .25-.25v-8.5a.25.25 0 0 0-.25-.25H1.75a.25.25 0 0 0-.25.25Zm5.28 1.72a.75.75 0 0 1 0 1.06L5.31 7l1.47 1.47a.751.751 0 0 1-.018 1.042.751.751 0 0 1-1.042.018l-2-2a.75.75 0 0 1 0-1.06l2-2a.75.75 0 0 1 1.06 0Zm2.44 0a.75.75 0 0 1 1.06 0l2 2a.75.75 0 0 1 0 1.06l-2 2a.751.751 0 0 1-1.042-.018.751.751 0 0 1-.018-1.042L10.69 7 9.22 5.53a.75.75 0 0 1 0-1.06Z"/></svg><text x="444" y="120" fill="#7dcfff" font-size="30" font-weight="700">3</text><text x="446" y="138" fill="#565f89" font-size="12">reviewed</text><text x="828" y="138" fill="#565f89" font-size="10.5" text-anchor="end" letter-spacing="1">LAST YEAR</text><line x1="32" y1="158" x2="828" y2="158" stroke="#565f89" stroke-opacity="0.25"/><text x="32" y="186" fill="#7dcfff" font-size="11.5" letter-spacing="1.5">PROJECTS I&apos;M WORKING IN</text><text x="442" y="186" fill="#565f89" font-size="10" text-anchor="end" letter-spacing="0.5">commits / 14d</text><rect x="32" y="200" width="410" height="60" rx="10" fill="#24283b"/><text x="48" y="222" fill="#c0caf5" font-size="15" font-weight="600">thing-explainer</text><use href="#pylogo" x="48" y="229" width="12" height="12"/><text x="65" y="239" fill="#565f89" font-size="10.5">Python</text><text x="426" y="239" fill="#565f89" font-size="10.5" text-anchor="end">18 commits</text><text x="48" y="254" fill="#565f89" font-size="12">Explain things using only common words</text><rect x="274" y="213" width="9" height="9" rx="2" fill="#73c05a" class="cell" style="animation-delay:0.10s"/><rect x="285" y="213" width="9" height="9" rx="2" fill="#2d3350" class="cell" style="animation-delay:0.13s"/><rect x="296" y="213" width="9" height="9" rx="2" fill="#2d3350" class="cell" style="animation-delay:0.16s"/><rect x="307" y="213" width="9" height="9" rx="2" fill="#2d3350" class="cell" style="animation-delay:0.19s"/><rect x="318" y="213" width="9" height="9" rx="2" fill="#2d3350" class="cell" style="animation-delay:0.22s"/><rect x="329" y="213" width="9" height="9" rx="2" fill="#73c05a" class="cell" style="animation-delay:0.25s"/><rect x="340" y="213" width="9" height="9" rx="2" fill="#2d3350" class="cell" style="animation-delay:0.28s"/><rect x="351" y="213" width="9" height="9" rx="2" fill="#2d3350" class="cell" style="animation-delay:0.31s"/><rect x="362" y="213" width="9" height="9" rx="2" fill="#2d3350" class="cell" style="animation-delay:0.34s"/><rect x="373" y="213" width="9" height="9" rx="2" fill="#2d3350" class="cell" style="animation-delay:0.37s"/><rect x="384" y="213" width="9" height="9" rx="2" fill="#2d3350" class="cell" style="animation-delay:0.40s"/><rect x="395" y="213" width="9" height="9" rx="2" fill="#73c05a" class="cell" style="animation-delay:0.43s"/><rect x="406" y="213" width="9" height="9" rx="2" fill="#3b6e47" class="cell" style="animation-delay:0.46s"/><rect x="417" y="213" width="9" height="9" rx="2" fill="#519a4e" class="pulse"/><rect x="32" y="268" width="410" height="60" rx="10" fill="#24283b"/><text x="48" y="290" fill="#c0caf5" font-size="15" font-weight="600">dashboard-studio</text><use href="#pylogo" x="48" y="297" width="12" height="12"/><text x="65" y="307" fill="#565f89" font-size="10.5">Python</text><text x="426" y="307" fill="#565f89" font-size="10.5" text-anchor="end">9 commits</text><text x="48" y="322" fill="#565f89" font-size="12">Dynamic Dashboards across multiple frontends</text><rect x="274" y="281" width="9" height="9" rx="2" fill="#2d3350" class="cell" style="animation-delay:0.10s"/><rect x="285" y="281" width="9" height="9" rx="2" fill="#2d3350" class="cell" style="animation-delay:0.13s"/><rect x="296" y="281" width="9" height="9" rx="2" fill="#2d3350" class="cell" style="animation-delay:0.16s"/><rect x="307" y="281" width="9" height="9" rx="2" fill="#2d3350" class="cell" style="animation-delay:0.19s"/><rect x="318" y="281" width="9" height="9" rx="2" fill="#2d3350" class="cell" style="animation-delay:0.22s"/><rect x="329" y="281" width="9" height="9" rx="2" fill="#519a4e" class="cell" style="animation-delay:0.25s"/><rect x="340" y="281" width="9" height="9" rx="2" fill="#2d3350" class="cell" style="animation-delay:0.28s"/><rect x="351" y="281" width="9" height="9" rx="2" fill="#2d3350" class="cell" style="animation-delay:0.31s"/><rect x="362" y="281" width="9" height="9" rx="2" fill="#2d3350" class="cell" style="animation-delay:0.34s"/><rect x="373" y="281" width="9" height="9" rx="2" fill="#2d3350" class="cell" style="animation-delay:0.37s"/><rect x="384" y="281" width="9" height="9" rx="2" fill="#2d3350" class="cell" style="animation-delay:0.40s"/><rect x="395" y="281" width="9" height="9" rx="2" fill="#2d3350" class="cell" style="animation-delay:0.43s"/><rect x="406" y="281" width="9" height="9" rx="2" fill="#3b6e47" class="cell" style="animation-delay:0.46s"/><rect x="417" y="281" width="9" height="9" rx="2" fill="#73c05a" class="pulse"/><rect x="32" y="336" width="410" height="60" rx="10" fill="#24283b"/><text x="48" y="358" fill="#c0caf5" font-size="15" font-weight="600">trove</text><use href="#pylogo" x="48" y="365" width="12" height="12"/><text x="65" y="375" fill="#565f89" font-size="10.5">Python</text><text x="426" y="375" fill="#565f89" font-size="10.5" text-anchor="end">43 commits</text><text x="48" y="390" fill="#565f89" font-size="12">One CLI with 40+ keyless sources. Poll into local S…</text><rect x="274" y="349" width="9" height="9" rx="2" fill="#3b6e47" class="cell" style="animation-delay:0.10s"/><rect x="285" y="349" width="9" height="9" rx="2" fill="#73c05a" class="cell" style="animation-delay:0.13s"/><rect x="296" y="349" width="9" height="9" rx="2" fill="#73c05a" class="cell" style="animation-delay:0.16s"/><rect x="307" y="349" width="9" height="9" rx="2" fill="#2d3350" class="cell" style="animation-delay:0.19s"/><rect x="318" y="349" width="9" height="9" rx="2" fill="#2d3350" class="cell" style="animation-delay:0.22s"/><rect x="329" y="349" width="9" height="9" rx="2" fill="#9ece6a" class="cell" style="animation-delay:0.25s"/><rect x="340" y="349" width="9" height="9" rx="2" fill="#2d3350" class="cell" style="animation-delay:0.28s"/><rect x="351" y="349" width="9" height="9" rx="2" fill="#2d3350" class="cell" style="animation-delay:0.31s"/><rect x="362" y="349" width="9" height="9" rx="2" fill="#9ece6a" class="cell" style="animation-delay:0.34s"/><rect x="373" y="349" width="9" height="9" rx="2" fill="#3b6e47" class="cell" style="animation-delay:0.37s"/><rect x="384" y="349" width="9" height="9" rx="2" fill="#73c05a" class="cell" style="animation-delay:0.40s"/><rect x="395" y="349" width="9" height="9" rx="2" fill="#73c05a" class="cell" style="animation-delay:0.43s"/><rect x="406" y="349" width="9" height="9" rx="2" fill="#519a4e" class="cell" style="animation-delay:0.46s"/><rect x="417" y="349" width="9" height="9" rx="2" fill="#519a4e" class="pulse"/><text x="470" y="186" fill="#7dcfff" font-size="11.5" letter-spacing="1.5">MERGED PRs — UPSTREAM</text><text x="470" y="221" fill="#c0caf5" font-size="13">oh-my-claudecode</text><text x="638" y="221" fill="#565f89" font-size="10.5" text-anchor="end"><tspan fill="#e0af68">★</tspan> 37.4k</text><rect x="650" y="210" width="146" height="14" rx="4" fill="#24283b"/><rect x="650" y="210" width="146" height="14" rx="4" fill="url(#bar)" class="bar" style="animation-delay:0.10s"/><text x="806" y="221" fill="#c0caf5" font-size="12.5" font-weight="600">7</text><text x="470" y="251" fill="#c0caf5" font-size="13">statsmodels</text><text x="638" y="251" fill="#565f89" font-size="10.5" text-anchor="end"><tspan fill="#e0af68">★</tspan> 11.5k</text><rect x="650" y="240" width="146" height="14" rx="4" fill="#24283b"/><rect x="650" y="240" width="62" height="14" rx="4" fill="url(#bar)" class="bar" style="animation-delay:0.18s"/><text x="806" y="251" fill="#c0caf5" font-size="12.5" font-weight="600">3</text><text x="470" y="281" fill="#c0caf5" font-size="13">printing-press-libr…</text><text x="638" y="281" fill="#565f89" font-size="10.5" text-anchor="end"><tspan fill="#e0af68">★</tspan> 1.7k</text><rect x="650" y="270" width="146" height="14" rx="4" fill="#24283b"/><rect x="650" y="270" width="62" height="14" rx="4" fill="url(#bar)" class="bar" style="animation-delay:0.26s"/><text x="806" y="281" fill="#c0caf5" font-size="12.5" font-weight="600">3</text><text x="470" y="311" fill="#c0caf5" font-size="13">cli-printing-press</text><text x="638" y="311" fill="#565f89" font-size="10.5" text-anchor="end"><tspan fill="#e0af68">★</tspan> 3.9k</text><rect x="650" y="300" width="146" height="14" rx="4" fill="#24283b"/><rect x="650" y="300" width="20" height="14" rx="4" fill="url(#bar)" class="bar" style="animation-delay:0.34s"/><text x="806" y="311" fill="#c0caf5" font-size="12.5" font-weight="600">1</text><text x="470" y="346" fill="#565f89" font-size="11.5">in review: lifelines · narwhals · plotly.py · polars</text><text x="470" y="376" fill="#565f89" font-size="10" letter-spacing="1">MERGED PRs / MONTH</text><line x1="470" y1="422.0" x2="828" y2="422.0" stroke="#565f89" stroke-opacity="0.25"/><text x="464" y="425.0" fill="#565f89" font-size="9" text-anchor="end">0</text><line x1="470" y1="386.0" x2="828" y2="386.0" stroke="#565f89" stroke-opacity="0.25" stroke-dasharray="3 3"/><text x="464" y="389.0" fill="#565f89" font-size="9" text-anchor="end">13</text><polygon points="470.0,422 470.0,422.0 502.5,422.0 535.1,422.0 567.6,422.0 600.2,422.0 632.7,422.0 665.3,422.0 697.8,422.0 730.4,422.0 762.9,422.0 795.5,386.0 828.0,413.7 828.0,422" fill="url(#spark)" class="fill"/><polyline points="470.0,422.0 502.5,422.0 535.1,422.0 567.6,422.0 600.2,422.0 632.7,422.0 665.3,422.0 697.8,422.0 730.4,422.0 762.9,422.0 795.5,386.0 828.0,413.7" fill="none" stroke="#7dcfff" stroke-width="1.8" stroke-linejoin="round" stroke-linecap="round" class="line"/><circle cx="828.0" cy="413.7" r="3" fill="#7dcfff" class="dot"/><text x="470.0" y="435" fill="#565f89" font-size="9" text-anchor="start">Aug</text><text x="665.3" y="435" fill="#565f89" font-size="9" text-anchor="middle">Feb</text><text x="828.0" y="435" fill="#565f89" font-size="9" text-anchor="end">Jul</text><line x1="32" y1="466" x2="828" y2="466" stroke="#565f89" stroke-opacity="0.25"/><text x="32" y="484" fill="#565f89" font-size="11">pull requests: last year (30 analysed) · commit heatmaps: last 14 days · GitHub API · refreshed daily</text></svg>