<svg xmlns="http://www.w3.org/2000/svg" width="860" height="498" viewBox="0 0 860 498" font-family="'Inter','Segoe UI',-apple-system,sans-serif"><defs><linearGradient id="bg" x1="0" y1="0" x2="1" y2="1"><stop offset="0" stop-color="#1a1b27"/><stop offset="1" stop-color="#1f2335"/></linearGradient><linearGradient id="bar" x1="0" y1="0" x2="1" y2="0"><stop offset="0" stop-color="#70a5fd"/><stop offset="1" stop-color="#bb9af7"/></linearGradient><linearGradient id="spark" x1="0" y1="0" x2="0" y2="1"><stop offset="0" stop-color="#70a5fd" stop-opacity="0.35"/><stop offset="1" stop-color="#70a5fd" stop-opacity="0.02"/></linearGradient></defs><style>@media (prefers-reduced-motion: no-preference){.bar{transform-box:fill-box;transform-origin:left;animation:grow .55s cubic-bezier(.2,.7,.3,1) backwards}.cell{animation:fade .45s ease-out backwards}.pulse{animation:pulse 3s ease-in-out infinite}.line{stroke-dasharray:620;stroke-dashoffset:620;animation:draw 1s ease-out .25s forwards}.fill,.dot{animation:fade .7s ease-out .7s backwards}}@keyframes grow{from{transform:scaleX(0)}}@keyframes fade{from{opacity:0}}@keyframes draw{to{stroke-dashoffset:0}}@keyframes pulse{50%{opacity:.4}}</style><rect width="860" height="498" rx="16" fill="url(#bg)"/><rect x="1" y="1" width="858" height="496" rx="15" fill="none" stroke="#565f89" stroke-opacity="0.30"/><text x="32" y="50" fill="#c0caf5" font-size="27" font-weight="700">Luke Johnson</text><text x="828" y="44" fill="#7dcfff" font-size="13" text-anchor="end" letter-spacing="2">ML · DATA SCIENCE</text><text x="828" y="74" fill="#565f89" font-size="12" text-anchor="end">as of 2026-07-05</text><text x="32" y="120" fill="#9ece6a" font-size="30" font-weight="700">16</text><text x="34" y="138" fill="#565f89" font-size="12">PRs merged</text><text x="162" y="120" fill="#bb9af7" font-size="30" font-weight="700">14</text><text x="164" y="138" fill="#565f89" font-size="12">upstream</text><text x="292" y="120" fill="#70a5fd" font-size="30" font-weight="700">4</text><text x="294" y="138" fill="#565f89" font-size="12">OSS projects</text><text x="422" y="120" fill="#7dcfff" font-size="30" font-weight="700">3</text><text x="424" y="138" fill="#565f89" font-size="12">reviewed</text><text x="828" y="138" fill="#565f89" font-size="10.5" text-anchor="end" letter-spacing="1">LAST YEAR</text><line x1="32" y1="158" x2="828" y2="158" stroke="#565f89" stroke-opacity="0.25"/><text x="32" y="186" fill="#7dcfff" font-size="11.5" letter-spacing="1.5">PERSONAL PROJECTS</text><text x="442" y="186" fill="#565f89" font-size="10" text-anchor="end" letter-spacing="0.5">commits / 14d</text><rect x="32" y="200" width="410" height="70" rx="10" fill="#24283b"/><text x="48" y="224" fill="#c0caf5" font-size="15" font-weight="600">thing-explainer</text><text x="48" y="244" fill="#565f89" font-size="10.5"><tspan fill="#3572A5">● </tspan>Python · ★ 1</text><text x="426" y="244" fill="#565f89" font-size="10.5" text-anchor="end">18 commits</text><text x="48" y="262" fill="#565f89" font-size="12">Explain things using only common words</text><rect x="274" y="214" width="9" height="9" rx="2" fill="#73c05a" class="cell" style="animation-delay:0.10s"/><rect x="285" y="214" width="9" height="9" rx="2" fill="#2d3350" class="cell" style="animation-delay:0.13s"/><rect x="296" y="214" width="9" height="9" rx="2" fill="#2d3350" class="cell" style="animation-delay:0.16s"/><rect x="307" y="214" width="9" height="9" rx="2" fill="#2d3350" class="cell" style="animation-delay:0.19s"/><rect x="318" y="214" width="9" height="9" rx="2" fill="#2d3350" class="cell" style="animation-delay:0.22s"/><rect x="329" y="214" width="9" height="9" rx="2" fill="#73c05a" class="cell" style="animation-delay:0.25s"/><rect x="340" y="214" width="9" height="9" rx="2" fill="#2d3350" class="cell" style="animation-delay:0.28s"/><rect x="351" y="214" width="9" height="9" rx="2" fill="#2d3350" class="cell" style="animation-delay:0.31s"/><rect x="362" y="214" width="9" height="9" rx="2" fill="#2d3350" class="cell" style="animation-delay:0.34s"/><rect x="373" y="214" width="9" height="9" rx="2" fill="#2d3350" class="cell" style="animation-delay:0.37s"/><rect x="384" y="214" width="9" height="9" rx="2" fill="#2d3350" class="cell" style="animation-delay:0.40s"/><rect x="395" y="214" width="9" height="9" rx="2" fill="#73c05a" class="cell" style="animation-delay:0.43s"/><rect x="406" y="214" width="9" height="9" rx="2" fill="#2d3350" class="cell" style="animation-delay:0.46s"/><rect x="417" y="214" width="9" height="9" rx="2" fill="#519a4e" class="pulse"/><rect x="32" y="278" width="410" height="70" rx="10" fill="#24283b"/><text x="48" y="302" fill="#c0caf5" font-size="15" font-weight="600">dashboard-studio</text><text x="48" y="322" fill="#565f89" font-size="10.5"><tspan fill="#3572A5">● </tspan>Python · ★ 1</text><text x="426" y="322" fill="#565f89" font-size="10.5" text-anchor="end">9 commits</text><text x="48" y="340" fill="#565f89" font-size="12">Dynamic Dashboard generation across multiple fronte…</text><rect x="274" y="292" width="9" height="9" rx="2" fill="#2d3350" class="cell" style="animation-delay:0.10s"/><rect x="285" y="292" width="9" height="9" rx="2" fill="#2d3350" class="cell" style="animation-delay:0.13s"/><rect x="296" y="292" width="9" height="9" rx="2" fill="#2d3350" class="cell" style="animation-delay:0.16s"/><rect x="307" y="292" width="9" height="9" rx="2" fill="#2d3350" class="cell" style="animation-delay:0.19s"/><rect x="318" y="292" width="9" height="9" rx="2" fill="#2d3350" class="cell" style="animation-delay:0.22s"/><rect x="329" y="292" width="9" height="9" rx="2" fill="#519a4e" class="cell" style="animation-delay:0.25s"/><rect x="340" y="292" width="9" height="9" rx="2" fill="#2d3350" class="cell" style="animation-delay:0.28s"/><rect x="351" y="292" width="9" height="9" rx="2" fill="#2d3350" class="cell" style="animation-delay:0.31s"/><rect x="362" y="292" width="9" height="9" rx="2" fill="#2d3350" class="cell" style="animation-delay:0.34s"/><rect x="373" y="292" width="9" height="9" rx="2" fill="#2d3350" class="cell" style="animation-delay:0.37s"/><rect x="384" y="292" width="9" height="9" rx="2" fill="#2d3350" class="cell" style="animation-delay:0.40s"/><rect x="395" y="292" width="9" height="9" rx="2" fill="#2d3350" class="cell" style="animation-delay:0.43s"/><rect x="406" y="292" width="9" height="9" rx="2" fill="#3b6e47" class="cell" style="animation-delay:0.46s"/><rect x="417" y="292" width="9" height="9" rx="2" fill="#73c05a" class="pulse"/><rect x="32" y="356" width="410" height="70" rx="10" fill="#24283b"/><text x="48" y="380" fill="#c0caf5" font-size="15" font-weight="600">trove</text><text x="48" y="400" fill="#565f89" font-size="10.5"><tspan fill="#3572A5">● </tspan>Python · ★ 1</text><text x="426" y="400" fill="#565f89" font-size="10.5" text-anchor="end">43 commits</text><text x="48" y="418" fill="#565f89" font-size="12">One CLI with 40+ keyless sources. Poll into local S…</text><rect x="274" y="370" width="9" height="9" rx="2" fill="#3b6e47" class="cell" style="animation-delay:0.10s"/><rect x="285" y="370" width="9" height="9" rx="2" fill="#73c05a" class="cell" style="animation-delay:0.13s"/><rect x="296" y="370" width="9" height="9" rx="2" fill="#9ece6a" class="cell" style="animation-delay:0.16s"/><rect x="307" y="370" width="9" height="9" rx="2" fill="#2d3350" class="cell" style="animation-delay:0.19s"/><rect x="318" y="370" width="9" height="9" rx="2" fill="#2d3350" class="cell" style="animation-delay:0.22s"/><rect x="329" y="370" width="9" height="9" rx="2" fill="#9ece6a" class="cell" style="animation-delay:0.25s"/><rect x="340" y="370" width="9" height="9" rx="2" fill="#2d3350" class="cell" style="animation-delay:0.28s"/><rect x="351" y="370" width="9" height="9" rx="2" fill="#2d3350" class="cell" style="animation-delay:0.31s"/><rect x="362" y="370" width="9" height="9" rx="2" fill="#9ece6a" class="cell" style="animation-delay:0.34s"/><rect x="373" y="370" width="9" height="9" rx="2" fill="#3b6e47" class="cell" style="animation-delay:0.37s"/><rect x="384" y="370" width="9" height="9" rx="2" fill="#519a4e" class="cell" style="animation-delay:0.40s"/><rect x="395" y="370" width="9" height="9" rx="2" fill="#9ece6a" class="cell" style="animation-delay:0.43s"/><rect x="406" y="370" width="9" height="9" rx="2" fill="#3b6e47" class="cell" style="animation-delay:0.46s"/><rect x="417" y="370" width="9" height="9" rx="2" fill="#519a4e" class="pulse"/><text x="470" y="186" fill="#7dcfff" font-size="11.5" letter-spacing="1.5">MERGED PRs — UPSTREAM</text><text x="470" y="221" fill="#c0caf5" font-size="13">oh-my-claudecode</text><rect x="650" y="210" width="146" height="14" rx="4" fill="#24283b"/><rect x="650" y="210" width="146" height="14" rx="4" fill="url(#bar)" class="bar" style="animation-delay:0.10s"/><text x="806" y="221" fill="#c0caf5" font-size="12.5" font-weight="600">7</text><text x="470" y="251" fill="#c0caf5" font-size="13">statsmodels</text><rect x="650" y="240" width="146" height="14" rx="4" fill="#24283b"/><rect x="650" y="240" width="62" height="14" rx="4" fill="url(#bar)" class="bar" style="animation-delay:0.18s"/><text x="806" y="251" fill="#c0caf5" font-size="12.5" font-weight="600">3</text><text x="470" y="281" fill="#c0caf5" font-size="13">printing-press-library</text><rect x="650" y="270" width="146" height="14" rx="4" fill="#24283b"/><rect x="650" y="270" width="62" height="14" rx="4" fill="url(#bar)" class="bar" style="animation-delay:0.26s"/><text x="806" y="281" fill="#c0caf5" font-size="12.5" font-weight="600">3</text><text x="470" y="311" fill="#c0caf5" font-size="13">cli-printing-press</text><rect x="650" y="300" width="146" height="14" rx="4" fill="#24283b"/><rect x="650" y="300" width="20" height="14" rx="4" fill="url(#bar)" class="bar" style="animation-delay:0.34s"/><text x="806" y="311" fill="#c0caf5" font-size="12.5" font-weight="600">1</text><text x="470" y="346" fill="#565f89" font-size="11.5">in review: lifelines · narwhals · plotly.py · polars</text><text x="470" y="376" fill="#565f89" font-size="10" letter-spacing="1">MERGED PRs / MONTH</text><line x1="470" y1="422.0" x2="828" y2="422.0" stroke="#565f89" stroke-opacity="0.25"/><text x="464" y="425.0" fill="#565f89" font-size="9" text-anchor="end">0</text><line x1="470" y1="386.0" x2="828" y2="386.0" stroke="#565f89" stroke-opacity="0.25" stroke-dasharray="3 3"/><text x="464" y="389.0" fill="#565f89" font-size="9" text-anchor="end">13</text><polygon points="470.0,422 470.0,422.0 502.5,422.0 535.1,422.0 567.6,422.0 600.2,422.0 632.7,422.0 665.3,422.0 697.8,422.0 730.4,422.0 762.9,422.0 795.5,386.0 828.0,413.7 828.0,422" fill="url(#spark)" class="fill"/><polyline points="470.0,422.0 502.5,422.0 535.1,422.0 567.6,422.0 600.2,422.0 632.7,422.0 665.3,422.0 697.8,422.0 730.4,422.0 762.9,422.0 795.5,386.0 828.0,413.7" fill="none" stroke="#7dcfff" stroke-width="1.8" stroke-linejoin="round" stroke-linecap="round" class="line"/><circle cx="828.0" cy="413.7" r="3" fill="#7dcfff" class="dot"/><text x="470.0" y="435" fill="#565f89" font-size="9" text-anchor="start">Aug</text><text x="665.3" y="435" fill="#565f89" font-size="9" text-anchor="middle">Feb</text><text x="828.0" y="435" fill="#565f89" font-size="9" text-anchor="end">Jul</text><line x1="32" y1="466" x2="828" y2="466" stroke="#565f89" stroke-opacity="0.25"/><text x="32" y="484" fill="#565f89" font-size="11">pull requests: last year (30 analysed) · commit heatmaps: last 14 days · GitHub API · refreshed daily</text></svg>