<svg xmlns="http://www.w3.org/2000/svg" width="860" height="374" viewBox="0 0 860 374" font-family="'Inter','Segoe UI',-apple-system,sans-serif"><defs><linearGradient id="bg" x1="0" y1="0" x2="1" y2="1"><stop offset="0" stop-color="#1a1b27"/><stop offset="1" stop-color="#1f2335"/></linearGradient><linearGradient id="bar" x1="0" y1="0" x2="1" y2="0"><stop offset="0" stop-color="#70a5fd"/><stop offset="1" stop-color="#bb9af7"/></linearGradient></defs><rect width="860" height="374" rx="16" fill="url(#bg)"/><rect x="1" y="1" width="858" height="372" rx="15" fill="none" stroke="#565f89" stroke-opacity="0.30"/><text x="32" y="50" fill="#c0caf5" font-size="27" font-weight="700">Luke Johnson</text><text x="828" y="44" fill="#7dcfff" font-size="13" text-anchor="end" letter-spacing="2">ML · DATA SCIENCE</text><text x="32" y="74" fill="#565f89" font-size="13.5">Projects I ship &amp; contributions that landed upstream</text><text x="828" y="74" fill="#565f89" font-size="12" text-anchor="end">as of 2026-06-30</text><text x="828" y="106" fill="#565f89" font-size="10.5" text-anchor="end" letter-spacing="1">ALL-TIME</text><text x="32" y="120" fill="#9ece6a" font-size="30" font-weight="700">12</text><text x="34" y="138" fill="#565f89" font-size="12">PRs merged</text><text x="197" y="120" fill="#bb9af7" font-size="30" font-weight="700">11</text><text x="199" y="138" fill="#565f89" font-size="12">upstream</text><text x="362" y="120" fill="#70a5fd" font-size="30" font-weight="700">3</text><text x="364" y="138" fill="#565f89" font-size="12">OSS projects</text><text x="527" y="120" fill="#7dcfff" font-size="30" font-weight="700">3</text><text x="529" y="138" fill="#565f89" font-size="12">reviewed</text><line x1="32" y1="158" x2="828" y2="158" stroke="#565f89" stroke-opacity="0.25"/><text x="32" y="186" fill="#7dcfff" font-size="11.5" letter-spacing="1.5">PERSONAL PROJECTS</text><text x="442" y="186" fill="#565f89" font-size="10" text-anchor="end" letter-spacing="0.5">commits / 14d</text><rect x="32" y="200" width="410" height="54" rx="10" fill="#24283b"/><text x="48" y="224" fill="#c0caf5" font-size="15" font-weight="600">trove</text><text x="48" y="243" fill="#565f89" font-size="12">Python · updated 2d ago</text><rect x="274" y="212" width="9" height="9" rx="2" fill="#2d3350"/><rect x="285" y="212" width="9" height="9" rx="2" fill="#2d3350"/><rect x="296" y="212" width="9" height="9" rx="2" fill="#2d3350"/><rect x="307" y="212" width="9" height="9" rx="2" fill="#2d3350"/><rect x="318" y="212" width="9" height="9" rx="2" fill="#2d3350"/><rect x="329" y="212" width="9" height="9" rx="2" fill="#3b6e47"/><rect x="340" y="212" width="9" height="9" rx="2" fill="#519a4e"/><rect x="351" y="212" width="9" height="9" rx="2" fill="#9ece6a"/><rect x="362" y="212" width="9" height="9" rx="2" fill="#2d3350"/><rect x="373" y="212" width="9" height="9" rx="2" fill="#2d3350"/><rect x="384" y="212" width="9" height="9" rx="2" fill="#73c05a"/><rect x="395" y="212" width="9" height="9" rx="2" fill="#3b6e47"/><rect x="406" y="212" width="9" height="9" rx="2" fill="#2d3350"/><rect x="417" y="212" width="9" height="9" rx="2" fill="#2d3350"/><text x="426" y="244" fill="#565f89" font-size="10.5" text-anchor="end">19 commits</text><rect x="32" y="262" width="410" height="54" rx="10" fill="#24283b"/><text x="48" y="286" fill="#c0caf5" font-size="15" font-weight="600">thing-explainer</text><text x="48" y="305" fill="#565f89" font-size="12">Explain anything using only the 1000 …</text><rect x="274" y="274" width="9" height="9" rx="2" fill="#2d3350"/><rect x="285" y="274" width="9" height="9" rx="2" fill="#3b6e47"/><rect x="296" y="274" width="9" height="9" rx="2" fill="#2d3350"/><rect x="307" y="274" width="9" height="9" rx="2" fill="#2d3350"/><rect x="318" y="274" width="9" height="9" rx="2" fill="#2d3350"/><rect x="329" y="274" width="9" height="9" rx="2" fill="#2d3350"/><rect x="340" y="274" width="9" height="9" rx="2" fill="#73c05a"/><rect x="351" y="274" width="9" height="9" rx="2" fill="#2d3350"/><rect x="362" y="274" width="9" height="9" rx="2" fill="#2d3350"/><rect x="373" y="274" width="9" height="9" rx="2" fill="#2d3350"/><rect x="384" y="274" width="9" height="9" rx="2" fill="#73c05a"/><rect x="395" y="274" width="9" height="9" rx="2" fill="#2d3350"/><rect x="406" y="274" width="9" height="9" rx="2" fill="#2d3350"/><rect x="417" y="274" width="9" height="9" rx="2" fill="#2d3350"/><text x="426" y="306" fill="#565f89" font-size="10.5" text-anchor="end">11 commits</text><text x="470" y="186" fill="#7dcfff" font-size="11.5" letter-spacing="1.5">MERGED PRs — UPSTREAM</text><text x="470" y="221" fill="#c0caf5" font-size="13">oh-my-claudecode</text><rect x="650" y="210" width="146" height="14" rx="4" fill="#24283b"/><rect x="650" y="210" width="146" height="14" rx="4" fill="url(#bar)"/><text x="806" y="221" fill="#c0caf5" font-size="12.5" font-weight="600">7</text><text x="470" y="251" fill="#c0caf5" font-size="13">printing-press-library</text><rect x="650" y="240" width="146" height="14" rx="4" fill="#24283b"/><rect x="650" y="240" width="62" height="14" rx="4" fill="url(#bar)"/><text x="806" y="251" fill="#c0caf5" font-size="12.5" font-weight="600">3</text><text x="470" y="281" fill="#c0caf5" font-size="13">statsmodels</text><rect x="650" y="270" width="146" height="14" rx="4" fill="#24283b"/><rect x="650" y="270" width="20" height="14" rx="4" fill="url(#bar)"/><text x="806" y="281" fill="#c0caf5" font-size="12.5" font-weight="600">1</text><text x="470" y="316" fill="#565f89" font-size="11.5">in review: lifelines · narwhals · plotly.py · polars</text><line x1="32" y1="342" x2="828" y2="342" stroke="#565f89" stroke-opacity="0.25"/><text x="32" y="360" fill="#565f89" font-size="11">pull requests: all-time (25 analyzed) · commit heatmaps: last 14 days · GitHub API · refreshed daily</text></svg>