<svg xmlns="http://www.w3.org/2000/svg" width="860" height="404" viewBox="0 0 860 404" font-family="'Fira Code','JetBrains Mono',monospace"><defs><linearGradient id="bg" x1="0" y1="0" x2="1" y2="1"><stop offset="0" stop-color="#1a1b27"/><stop offset="1" stop-color="#1f2335"/></linearGradient><linearGradient id="bar" x1="0" y1="0" x2="1" y2="0"><stop offset="0" stop-color="#70a5fd"/><stop offset="1" stop-color="#bb9af7"/></linearGradient></defs><rect width="860" height="404" rx="14" fill="url(#bg)"/><rect x="1" y="1" width="858" height="402" rx="13" fill="none" stroke="#565f89" stroke-opacity="0.35"/><circle cx="26" cy="28" r="6" fill="#f7768e"/><circle cx="46" cy="28" r="6" fill="#e0af68"/><circle cx="66" cy="28" r="6" fill="#9ece6a"/><text x="92" y="33" fill="#565f89" font-size="13">agent://data-science · LukeTheoJohnson</text><text x="838" y="33" fill="#565f89" font-size="12" text-anchor="end">2026-06-15 13:30 UTC</text><line x1="16" y1="48" x2="844" y2="48" stroke="#565f89" stroke-opacity="0.25"/><text x="26" y="86" fill="#c0caf5" font-size="22" font-weight="700">Zero commits, 9 PRs: review-focused contribut…</text><text x="26" y="128" fill="#7dcfff" font-size="12">▌ AGENT TRACE</text><text x="30" y="154" fill="#9ece6a" font-size="13">▸</text><text x="48" y="154" fill="#c0caf5" font-size="13">scanned 65 recent events</text><text x="30" y="178" fill="#9ece6a" font-size="13">▸</text><text x="48" y="178" fill="#c0caf5" font-size="13">detected 0 commits vs 9 pull requests</text><text x="30" y="202" fill="#9ece6a" font-size="13">▸</text><text x="48" y="202" fill="#c0caf5" font-size="13">mapped 8 event types across 17 repos</text><text x="30" y="226" fill="#bb9af7" font-size="13">▸ <tspan fill="#565f89">rendering insight</tspan> <tspan fill="#9ece6a">✓</tspan></text><rect x="26" y="254" width="490" height="104" rx="9" fill="#24283b" stroke="#70a5fd" stroke-opacity="0.5"/><text x="42" y="280" fill="#e0af68" font-size="11" letter-spacing="1">INSIGHT</text><text x="42" y="304" fill="#c0caf5" font-size="13.5">LukeTheoJohnson made 9 PRs with zero direct commits</text><text x="42" y="324" fill="#c0caf5" font-size="13.5">in this window. Activity centers on review (10</text><text x="42" y="344" fill="#c0caf5" font-size="13.5">review events) and exploration (7 watches, 5 fork…</text><text x="556" y="128" fill="#7dcfff" font-size="12">▌ Event breakdown</text><text x="556" y="163" fill="#565f89" font-size="11">PushEvent</text><rect x="634" y="152" width="184" height="14" rx="4" fill="url(#bar)"/><text x="826" y="163" fill="#c0caf5" font-size="11">24</text><text x="556" y="189" fill="#565f89" font-size="11">PullRequest</text><rect x="634" y="178" width="69" height="14" rx="4" fill="url(#bar)"/><text x="711" y="189" fill="#c0caf5" font-size="11">9</text><text x="556" y="215" fill="#565f89" font-size="11">CreateEvent</text><rect x="634" y="204" width="69" height="14" rx="4" fill="url(#bar)"/><text x="711" y="215" fill="#c0caf5" font-size="11">9</text><text x="556" y="241" fill="#565f89" font-size="11">PRReview</text><rect x="634" y="230" width="38" height="14" rx="4" fill="url(#bar)"/><text x="680" y="241" fill="#c0caf5" font-size="11">5</text><text x="556" y="267" fill="#565f89" font-size="11">WatchEvent</text><rect x="634" y="256" width="53" height="14" rx="4" fill="url(#bar)"/><text x="695" y="267" fill="#c0caf5" font-size="11">7</text><text x="556" y="294" fill="#565f89" font-size="11" font-style="italic">24 pushes, but 0 recorded commits—likel…</text><line x1="16" y1="364" x2="844" y2="364" stroke="#565f89" stroke-opacity="0.25"/><text x="26" y="386" fill="#565f89" font-size="11">engine: claude · claude-haiku-4-5 · 65 events analyzed · regenerated daily by github actions</text></svg>