<svg xmlns="http://www.w3.org/2000/svg" width="860" height="404" viewBox="0 0 860 404" font-family="'Fira Code','JetBrains Mono',monospace"><defs><linearGradient id="bg" x1="0" y1="0" x2="1" y2="1"><stop offset="0" stop-color="#1a1b27"/><stop offset="1" stop-color="#1f2335"/></linearGradient><linearGradient id="bar" x1="0" y1="0" x2="1" y2="0"><stop offset="0" stop-color="#70a5fd"/><stop offset="1" stop-color="#bb9af7"/></linearGradient></defs><rect width="860" height="404" rx="14" fill="url(#bg)"/><rect x="1" y="1" width="858" height="402" rx="13" fill="none" stroke="#565f89" stroke-opacity="0.35"/><circle cx="26" cy="28" r="6" fill="#f7768e"/><circle cx="46" cy="28" r="6" fill="#e0af68"/><circle cx="66" cy="28" r="6" fill="#9ece6a"/><text x="92" y="33" fill="#565f89" font-size="13">agent://data-science · LukeTheoJohnson</text><text x="838" y="33" fill="#565f89" font-size="12" text-anchor="end">2026-06-23 07:32 UTC</text><line x1="16" y1="48" x2="844" y2="48" stroke="#565f89" stroke-opacity="0.25"/><text x="26" y="86" fill="#c0caf5" font-size="22" font-weight="700">0 commits across 20 repos lately</text><text x="26" y="128" fill="#7dcfff" font-size="12">▌ AGENT TRACE</text><text x="30" y="154" fill="#9ece6a" font-size="13">▸</text><text x="48" y="154" fill="#c0caf5" font-size="13">scanned 87 public events</text><text x="30" y="178" fill="#9ece6a" font-size="13">▸</text><text x="48" y="178" fill="#c0caf5" font-size="13">counted 0 commits, 16 PRs</text><text x="30" y="202" fill="#9ece6a" font-size="13">▸</text><text x="48" y="202" fill="#c0caf5" font-size="13">ranked 1 languages by repo count</text><text x="30" y="226" fill="#bb9af7" font-size="13">▸ <tspan fill="#565f89">rendering insight</tspan> <tspan fill="#9ece6a">✓</tspan></text><rect x="26" y="254" width="490" height="104" rx="9" fill="#24283b" stroke="#70a5fd" stroke-opacity="0.5"/><text x="42" y="280" fill="#e0af68" font-size="11" letter-spacing="1">INSIGHT</text><text x="42" y="304" fill="#c0caf5" font-size="13.5">Most active in Python. Recent work spans 20</text><text x="42" y="324" fill="#c0caf5" font-size="13.5">repositories — consistent multi-project cadence.</text><text x="556" y="128" fill="#7dcfff" font-size="12">▌ Languages by repo</text><text x="556" y="163" fill="#565f89" font-size="11">Python</text><rect x="634" y="152" width="184" height="14" rx="4" fill="url(#bar)"/><text x="826" y="163" fill="#c0caf5" font-size="11">3</text><text x="556" y="190" fill="#565f89" font-size="11" font-style="italic">top: Python</text><line x1="16" y1="364" x2="844" y2="364" stroke="#565f89" stroke-opacity="0.25"/><text x="26" y="386" fill="#565f89" font-size="11">engine: deterministic (no API key) · 87 events analyzed · regenerated daily by github actions</text></svg>