<svg xmlns="http://www.w3.org/2000/svg" width="860" height="478" viewBox="0 0 860 478" font-family="'Inter','Segoe UI',-apple-system,sans-serif"><defs><linearGradient id="bg" x1="0" y1="0" x2="1" y2="1"><stop offset="0" stop-color="#1a1b27"/><stop offset="1" stop-color="#1f2335"/></linearGradient><linearGradient id="bar" x1="0" y1="0" x2="1" y2="0"><stop offset="0" stop-color="#70a5fd"/><stop offset="1" stop-color="#bb9af7"/></linearGradient></defs><rect width="860" height="478" rx="16" fill="url(#bg)"/><rect x="1" y="1" width="858" height="476" rx="15" fill="none" stroke="#565f89" stroke-opacity="0.30"/><text x="32" y="50" fill="#c0caf5" font-size="27" font-weight="700">Luke Johnson</text><text x="828" y="44" fill="#7dcfff" font-size="13" text-anchor="end" letter-spacing="2">ML · DATA SCIENCE</text><text x="32" y="74" fill="#737aa2" font-size="13.5">Projects I build &amp; contributions upstream</text><text x="828" y="74" fill="#565f89" font-size="12" text-anchor="end">as of 2026-07-05</text><text x="32" y="120" fill="#9ece6a" font-size="30" font-weight="700">16</text><text x="34" y="138" fill="#565f89" font-size="12">PRs merged</text><text x="162" y="120" fill="#bb9af7" font-size="30" font-weight="700">14</text><text x="164" y="138" fill="#565f89" font-size="12">upstream</text><text x="292" y="120" fill="#70a5fd" font-size="30" font-weight="700">4</text><text x="294" y="138" fill="#565f89" font-size="12">OSS projects</text><text x="422" y="120" fill="#7dcfff" font-size="30" font-weight="700">3</text><text x="424" y="138" fill="#565f89" font-size="12">reviewed</text><text x="828" y="138" fill="#565f89" font-size="10.5" text-anchor="end" letter-spacing="1">LAST YEAR</text><line x1="32" y1="158" x2="828" y2="158" stroke="#565f89" stroke-opacity="0.25"/><text x="32" y="186" fill="#7dcfff" font-size="11.5" letter-spacing="1.5">PERSONAL PROJECTS</text><text x="442" y="186" fill="#565f89" font-size="10" text-anchor="end" letter-spacing="0.5">commits / 14d</text><rect x="32" y="200" width="410" height="68" rx="10" fill="#24283b"/><text x="48" y="224" fill="#c0caf5" font-size="15" font-weight="600">thing-explainer</text><text x="48" y="243" fill="#565f89" font-size="12">Explain using only the 1000 most common</text><text x="48" y="259" fill="#565f89" font-size="12">English words</text><rect x="274" y="212" width="9" height="9" rx="2" fill="#2d3350"/><rect x="285" y="212" width="9" height="9" rx="2" fill="#73c05a"/><rect x="296" y="212" width="9" height="9" rx="2" fill="#2d3350"/><rect x="307" y="212" width="9" height="9" rx="2" fill="#2d3350"/><rect x="318" y="212" width="9" height="9" rx="2" fill="#2d3350"/><rect x="329" y="212" width="9" height="9" rx="2" fill="#73c05a"/><rect x="340" y="212" width="9" height="9" rx="2" fill="#2d3350"/><rect x="351" y="212" width="9" height="9" rx="2" fill="#2d3350"/><rect x="362" y="212" width="9" height="9" rx="2" fill="#2d3350"/><rect x="373" y="212" width="9" height="9" rx="2" fill="#2d3350"/><rect x="384" y="212" width="9" height="9" rx="2" fill="#2d3350"/><rect x="395" y="212" width="9" height="9" rx="2" fill="#73c05a"/><rect x="406" y="212" width="9" height="9" rx="2" fill="#2d3350"/><rect x="417" y="212" width="9" height="9" rx="2" fill="#519a4e"/><text x="426" y="244" fill="#565f89" font-size="10.5" text-anchor="end">18 commits</text><rect x="32" y="276" width="410" height="68" rx="10" fill="#24283b"/><text x="48" y="300" fill="#c0caf5" font-size="15" font-weight="600">dashboard-studio</text><text x="48" y="319" fill="#565f89" font-size="12">Standalone HTML dashboards with insights</text><text x="48" y="335" fill="#565f89" font-size="12">generation from a DataFrame</text><rect x="274" y="288" width="9" height="9" rx="2" fill="#2d3350"/><rect x="285" y="288" width="9" height="9" rx="2" fill="#2d3350"/><rect x="296" y="288" width="9" height="9" rx="2" fill="#2d3350"/><rect x="307" y="288" width="9" height="9" rx="2" fill="#2d3350"/><rect x="318" y="288" width="9" height="9" rx="2" fill="#2d3350"/><rect x="329" y="288" width="9" height="9" rx="2" fill="#519a4e"/><rect x="340" y="288" width="9" height="9" rx="2" fill="#2d3350"/><rect x="351" y="288" width="9" height="9" rx="2" fill="#2d3350"/><rect x="362" y="288" width="9" height="9" rx="2" fill="#2d3350"/><rect x="373" y="288" width="9" height="9" rx="2" fill="#2d3350"/><rect x="384" y="288" width="9" height="9" rx="2" fill="#2d3350"/><rect x="395" y="288" width="9" height="9" rx="2" fill="#2d3350"/><rect x="406" y="288" width="9" height="9" rx="2" fill="#3b6e47"/><rect x="417" y="288" width="9" height="9" rx="2" fill="#73c05a"/><text x="426" y="320" fill="#565f89" font-size="10.5" text-anchor="end">9 commits</text><rect x="32" y="352" width="410" height="68" rx="10" fill="#24283b"/><text x="48" y="376" fill="#c0caf5" font-size="15" font-weight="600">trove</text><text x="48" y="395" fill="#565f89" font-size="12">One CLI over 40+ keyless sources. Search,</text><text x="48" y="411" fill="#565f89" font-size="12">watch and poll prices and listings into a local SQLite</text><rect x="274" y="364" width="9" height="9" rx="2" fill="#3b6e47"/><rect x="285" y="364" width="9" height="9" rx="2" fill="#519a4e"/><rect x="296" y="364" width="9" height="9" rx="2" fill="#9ece6a"/><rect x="307" y="364" width="9" height="9" rx="2" fill="#2d3350"/><rect x="318" y="364" width="9" height="9" rx="2" fill="#2d3350"/><rect x="329" y="364" width="9" height="9" rx="2" fill="#9ece6a"/><rect x="340" y="364" width="9" height="9" rx="2" fill="#2d3350"/><rect x="351" y="364" width="9" height="9" rx="2" fill="#2d3350"/><rect x="362" y="364" width="9" height="9" rx="2" fill="#3b6e47"/><rect x="373" y="364" width="9" height="9" rx="2" fill="#9ece6a"/><rect x="384" y="364" width="9" height="9" rx="2" fill="#519a4e"/><rect x="395" y="364" width="9" height="9" rx="2" fill="#9ece6a"/><rect x="406" y="364" width="9" height="9" rx="2" fill="#3b6e47"/><rect x="417" y="364" width="9" height="9" rx="2" fill="#519a4e"/><text x="426" y="396" fill="#565f89" font-size="10.5" text-anchor="end">43 commits</text><text x="470" y="186" fill="#7dcfff" font-size="11.5" letter-spacing="1.5">MERGED PRs — UPSTREAM</text><text x="470" y="221" fill="#c0caf5" font-size="13">oh-my-claudecode</text><rect x="650" y="210" width="146" height="14" rx="4" fill="#24283b"/><rect x="650" y="210" width="146" height="14" rx="4" fill="url(#bar)"/><text x="806" y="221" fill="#c0caf5" font-size="12.5" font-weight="600">7</text><text x="470" y="251" fill="#c0caf5" font-size="13">statsmodels</text><rect x="650" y="240" width="146" height="14" rx="4" fill="#24283b"/><rect x="650" y="240" width="62" height="14" rx="4" fill="url(#bar)"/><text x="806" y="251" fill="#c0caf5" font-size="12.5" font-weight="600">3</text><text x="470" y="281" fill="#c0caf5" font-size="13">printing-press-library</text><rect x="650" y="270" width="146" height="14" rx="4" fill="#24283b"/><rect x="650" y="270" width="62" height="14" rx="4" fill="url(#bar)"/><text x="806" y="281" fill="#c0caf5" font-size="12.5" font-weight="600">3</text><text x="470" y="311" fill="#c0caf5" font-size="13">cli-printing-press</text><rect x="650" y="300" width="146" height="14" rx="4" fill="#24283b"/><rect x="650" y="300" width="20" height="14" rx="4" fill="url(#bar)"/><text x="806" y="311" fill="#c0caf5" font-size="12.5" font-weight="600">1</text><text x="470" y="346" fill="#565f89" font-size="11.5">in review: lifelines · narwhals · plotly.py · polars</text><line x1="32" y1="446" x2="828" y2="446" stroke="#565f89" stroke-opacity="0.25"/><text x="32" y="464" fill="#565f89" font-size="11">pull requests: last year (30 analysed) · commit heatmaps: last 14 days · GitHub API · refreshed daily</text></svg>